<?xml version="1.0" encoding="utf-8"?>
<!-- Generator: Adobe Illustrator 24.1.0, SVG Export Plug-In . SVG Version: 6.00 Build 0)  -->
<svg version="1.1" id="Layer_1" xmlns="http://www.w3.org/2000/svg" xmlns:xlink="http://www.w3.org/1999/xlink" x="0px" y="0px"
	 viewBox="0 0 260 99.1" style="enable-background:new 0 0 260 99.1;" xml:space="preserve">
<g>
	<path d="M61.3,17.5c2.6,0,5,1,6.8,2.8l19,19c0.4,0.4,1.1,0.4,1.6,0c0.4-0.4,0.4-1.1,0-1.6l-19-19c-2.2-2.2-5.2-3.5-8.4-3.5
		s-6.1,1.2-8.4,3.5L23,48.6c-0.4,0.4-0.4,1.1,0,1.6c0.4,0.4,1.1,0.4,1.6,0l29.9-29.9C56.3,18.5,58.7,17.5,61.3,17.5z"/>
	<g>
		<path d="M79.2,85H37.1c-4.8,0-8.7-3.9-8.7-8.7V56.8c0-0.6,0.4-1,1-1s1,0.4,1,1v19.6c0,3.7,3,6.7,6.7,6.7h42.1c3.7,0,6.7-3,6.7-6.7
			V49.9c0-0.6,0.4-1,1-1s1,0.4,1,1v26.5C87.9,81.1,84,85,79.2,85z"/>
	</g>
	<path d="M123.6,32.4h-2.2l0.4-2.9c0-0.1,0-0.3-0.1-0.4c-0.1-0.1-0.2-0.2-0.4-0.2h-2.8c-0.2,0-0.5,0.2-0.5,0.4l-0.4,3h-1.7l0.4-2.9
		c0-0.1,0-0.3-0.1-0.4c-0.1-0.1-0.2-0.2-0.4-0.2h-2.7c-0.2,0-0.5,0.2-0.5,0.4l-0.4,3h-3c-0.3,0-0.5,0.2-0.5,0.5v2.9
		c0,0.3,0.2,0.5,0.5,0.5h2.5l-0.3,1.7h-3.1c-0.3,0-0.5,0.2-0.5,0.5v2.9c0,0.3,0.2,0.5,0.5,0.5h2.5l-0.5,3.1c0,0.1,0,0.3,0.1,0.4
		c0.1,0.1,0.2,0.2,0.4,0.2h2.7c0.2,0,0.5-0.2,0.5-0.4l0.5-3.3h1.6l-0.5,3.1c0,0.1,0,0.3,0.1,0.4c0.1,0.1,0.2,0.2,0.4,0.2h2.8
		c0.2,0,0.5-0.2,0.5-0.4l0.5-3.3h2.7c0.3,0,0.5-0.2,0.5-0.5v-2.9c0-0.3-0.2-0.5-0.5-0.5h-2.2l0.2-1.7h2.8c0.3,0,0.5-0.2,0.5-0.5
		v-2.9C124.1,32.6,123.9,32.4,123.6,32.4z M117.1,36.3l-0.3,1.7h-1.6l0.2-1.7H117.1z"/>
	<path d="M139.3,33.7c-2.1-0.5-4-1-4-1.9c0-0.5,0.6-0.8,1.8-0.8c0.7,0,1.2,0.1,1.7,0.3c0.5,0.2,0.7,0.6,0.8,1.2
		c0,0.2,0.2,0.4,0.5,0.4h7c0.1,0,0.3-0.1,0.4-0.2c0.1-0.1,0.1-0.3,0.1-0.4c-0.6-4.8-4.3-7.5-10.1-7.5c-6.3,0-10.2,2.9-10.2,7.7
		c0,5.7,5.2,6.9,9,7.8c2.1,0.5,3.9,0.9,3.9,1.8c0,0.9-1.4,1.2-2.6,1.2c-0.7,0-1.3-0.2-1.8-0.5c-0.5-0.3-0.9-0.8-1-1.4
		c0-0.2-0.3-0.4-0.5-0.4h-7c-0.1,0-0.3,0.1-0.4,0.2s-0.1,0.2-0.1,0.4c0.2,4.6,4.6,8,10.4,8c6.9,0,11-3.1,11-8.2
		C148.2,35.9,143.1,34.6,139.3,33.7z"/>
	<path d="M162.1,31.6h-2.6V27c0-0.3-0.2-0.5-0.5-0.5h-6.4c-0.3,0-0.5,0.2-0.5,0.5v4.6h-1.9c-0.3,0-0.5,0.2-0.5,0.5v3.7
		c0,0.3,0.2,0.5,0.5,0.5h1.8v6.3c0,2.5,0.2,4.2,1.3,5.2c1,0.9,2.5,1.2,5.1,1.2c1,0,2.3,0,3.7-0.1c0.3,0,0.5-0.2,0.5-0.5v-4.6
		c0-0.3-0.2-0.5-0.5-0.5h-1c-1.5,0-1.5-0.2-1.5-1.5v-5.4h2.6c0.3,0,0.5-0.2,0.5-0.5v-3.7C162.6,31.8,162.4,31.6,162.1,31.6z"/>
	<path d="M184,46v-7.6c0-4.1-0.6-7.3-8.7-7.3c-6.3,0-9.4,2-9.4,6c0,0.3,0.2,0.5,0.5,0.5h6.2c0.3,0,0.5-0.2,0.5-0.4
		c0.1-0.6,0.3-1.1,1.8-1.1c0.5,0,1.6,0.1,1.6,0.8c0,0.7-1.7,1-3.5,1.2c-3.4,0.4-8.1,1-8.1,5.9c0,3.3,2.5,5.4,6.3,5.4
		c2.5,0,4.2-0.5,5.8-1.8l0.2,0.9c0,0.2,0.2,0.4,0.5,0.4h6.7c0.3,0,0.5-0.2,0.5-0.5v-0.3c0-0.2-0.1-0.3-0.2-0.4
		C184,47.1,184,46.9,184,46z M173.6,44.3c-0.9,0-1.9-0.3-1.9-1.1c0-1.1,0.8-1.4,2.8-1.8c0.7-0.1,1.4-0.3,2.1-0.5
		c0,1.2-0.3,2.1-0.9,2.6C175.2,44,174.5,44.3,173.6,44.3z"/>
	<path d="M205.4,31.8c-0.1-0.1-0.2-0.2-0.4-0.2h-6.2c-0.2,0-0.4,0.1-0.5,0.4l-2.4,8.4l-2.4-8.4c-0.1-0.2-0.3-0.4-0.5-0.4h-6.5
		c-0.2,0-0.3,0.1-0.4,0.2s-0.1,0.3-0.1,0.5l5.4,14.9c0.3,0.9,0.3,1.2,0.2,1.4c-0.1,0.2-0.5,0.3-1.5,0.3c-0.2,0-0.4,0-0.6,0
		c-0.2,0-0.5,0-0.7,0c-0.3,0-0.5,0.2-0.5,0.5v4.5c0,0.3,0.2,0.5,0.5,0.5c0.2,0,0.5,0,0.8,0c0.6,0,1.3,0.1,2,0.1c6,0,6.8-1.7,8.6-7
		l5.2-15.2C205.5,32.1,205.5,31.9,205.4,31.8z"/>
	<path d="M216.4,38.3c-0.1-0.2-0.3-0.3-0.5-0.3h-7.5c-0.2,0-0.4,0.1-0.5,0.3l-8,22.4c-0.1,0.2,0,0.3,0.1,0.5
		c0.1,0.1,0.2,0.2,0.4,0.2h7.2c0.2,0,0.4-0.1,0.5-0.4l0.7-2.6h6.6l0.8,2.6c0.1,0.2,0.3,0.4,0.5,0.4h7.3c0.2,0,0.3-0.1,0.4-0.2
		c0.1-0.1,0.1-0.3,0.1-0.5L216.4,38.3z M213.9,52.8h-3.3l1.6-5.7L213.9,52.8z"/>
	<path d="M236.7,44.1h-2.6v-4.6c0-0.3-0.2-0.5-0.5-0.5h-6.4c-0.3,0-0.5,0.2-0.5,0.5v4.6h-1.9c-0.3,0-0.5,0.2-0.5,0.5v3.7
		c0,0.3,0.2,0.5,0.5,0.5h1.8v6.3c0,2.5,0.2,4.2,1.3,5.2c1,0.9,2.5,1.2,5.1,1.2c1,0,2.3,0,3.7-0.1c0.3,0,0.5-0.2,0.5-0.5v-4.6
		c0-0.3-0.2-0.5-0.5-0.5h-1c-1.5,0-1.5-0.2-1.5-1.5v-5.4h2.6c0.3,0,0.5-0.2,0.5-0.5v-3.7C237.2,44.3,237,44.1,236.7,44.1z"/>
	<g>
		<path d="M148.9,58.8h-7.4c-0.3,0-0.5,0.2-0.5,0.5v7.1h-5.9v-7.1c0-0.3-0.2-0.5-0.5-0.5h-7.4c-0.3,0-0.5,0.2-0.5,0.5v22.4
			c0,0.3,0.2,0.5,0.5,0.5h7.4c0.3,0,0.5-0.2,0.5-0.5v-8.2h5.9v8.2c0,0.3,0.2,0.5,0.5,0.5h7.4c0.3,0,0.5-0.2,0.5-0.5V59.3
			C149.4,59,149.2,58.8,148.9,58.8z"/>
		<path d="M162.4,64.4c-6,0-9.8,3.6-9.8,9.3c0,5.4,3.8,8.9,9.8,8.9c6,0,9.8-3.6,9.8-9.3C172.2,68,168.4,64.4,162.4,64.4z
			 M162.5,77.3c-1.9,0-3.1-2.1-3.1-3.9c0-0.8,1-3.6,3.2-3.6c0,0,0.1,0,0.1,0c0.4,0,0.8,0.2,1.1,0.4c0.6,0.6,1.7,1.7,1.7,3.1
			C165.5,77.3,163,77.3,162.5,77.3z"/>
		<path d="M197.4,64.4c-2.2,0-4.1,0.9-5.6,2.6c-0.8-1.3-2.4-2.6-5.4-2.6c-1.9,0-3.6,1-4.7,2v-1.1c0-0.3-0.2-0.5-0.5-0.5h-6
			c-0.3,0-0.5,0.2-0.5,0.5v16.3c0,0.3,0.2,0.5,0.5,0.5h6.5c0.3,0,0.5-0.2,0.5-0.5v-8.1c0-2.6,0.7-3.1,1.8-3.1c1.2,0,1.7,0.4,1.7,2.9
			v8.3c0,0.3,0.2,0.5,0.5,0.5h6.5c0.3,0,0.5-0.2,0.5-0.5v-8.1c0-2.6,0.7-3.1,1.8-3.1c1.2,0,1.7,0.4,1.7,2.9v8.3
			c0,0.3,0.2,0.5,0.5,0.5h6.5c0.3,0,0.5-0.2,0.5-0.5v-9.7C204.1,68.8,203.4,64.4,197.4,64.4z"/>
		<path d="M223.5,67.2c-1.8-1.8-4.3-2.8-7.3-2.8c-5.7,0-9.8,3.8-9.8,9.3c0,5.5,3.8,9,9.8,9c2.4,0,8.1-0.6,9.5-5.8
			c0-0.2,0-0.3-0.1-0.4c-0.1-0.1-0.2-0.2-0.4-0.2h-6.2c-0.2,0-0.4,0.1-0.5,0.3c-0.4,0.7-1.1,1.2-2,1.2c-1.2,0-2.4-0.8-2.7-2.2h11.8
			c0.3,0,0.5-0.2,0.5-0.5C226.4,71.9,225.4,69.2,223.5,67.2z M214,71.2c0.2-1.2,1-1.8,2.5-1.8c1.1,0,2.1,0.8,2.3,1.8H214z"/>
	</g>
	<path d="M64.5,43.8c-3.2,0-4.6,1.4-5.7,2.4l-0.2,0.2l-0.2-0.2c-1-1-2.5-2.4-5.7-2.4c-6.2,0-9.9,3.8-9.9,10.2c0,1.3,0.2,2.7,0.7,4.1
		c0,0,0.4,1,0.4,1.1c0.8,1.8,2.6,5.6,5.6,8.6c4,4.3,8.2,7.1,8.4,7.3c0.2,0.1,0.4,0.2,0.6,0.2c0.2,0,0.4-0.1,0.6-0.2
		c0.5-0.3,5-3.4,9-8c0.2-0.2,0.3-0.5,0.3-0.8s-0.2-0.6-0.4-0.8c-0.5-0.4-1.2-0.4-1.6,0.1c-3,3.5-6.5,6.1-7.9,7.1
		c-1.2-0.9-3.8-2.9-6.5-5.5c0,0-0.5-0.5-0.8-0.8c-0.2-0.3-0.5-0.5-0.7-0.8c0,0-0.1,0-0.1-0.1c-2.7-3-4.3-6.7-4.7-7.8
		c-0.4-1.3-0.6-2.5-0.6-3.7c0-3.6,1.3-7.9,7.6-7.9c2.3,0,3.1,0.8,4.1,1.8c0.3,0.3,0.6,0.6,1,0.9c0.4,0.3,1,0.3,1.4,0
		c0.4-0.3,0.8-0.7,1.1-1c0.9-0.9,1.8-1.7,4-1.7c6.6,0,7.6,4.9,7.6,7.9c0,1.3-0.3,2.7-0.8,4.1c-0.2,0.6,0.1,1.3,0.7,1.5
		c0.1,0,0.3,0.1,0.4,0.1c0.5,0,0.9-0.3,1.1-0.8c0.6-1.7,0.9-3.3,0.9-4.9C74.4,47.7,70.6,43.8,64.5,43.8z"/>
</g>
</svg>
